<svg id="Layer_1" xmlns="http://www.w3.org/2000/svg" viewBox="0 0 510 415"><style>.st1{fill:#fff}</style><path class="st1" d="M253.3 76.2c-20.1 0-37.2 7-51.3 21.1l-.9.9 19.5 15.3c9.3-8.8 20.2-13.2 32.8-13.2 3.5 0 6.4-1.1 8.7-3.4s3.4-5.2 3.4-8.7-1.1-6.4-3.4-8.7c-2.4-2.2-5.3-3.3-8.8-3.3z"/><path class="st1" d="M181.8 83.1c6.8-7.4 14.6-13.6 23.6-18.6 14.8-8.3 31-12.5 48.3-12.5 17.4 0 33.5 4.3 48.3 12.8s26.5 20.3 35.1 35.1 12.8 31.1 12.8 48.7c0 19.9-5.5 37.8-16.4 53.6l28.5 22.4c6.3-8.9 11.5-18.5 15.5-28.8 5.8-14.8 8.7-30.6 8.7-47.2 0-24.2-5.9-46.4-17.7-66.8-11.8-20.4-27.9-36.5-48.3-48.3s-42.7-17.7-66.8-17.7c-25.2 0-48.1 6.3-68.7 18.9-11.8 7.3-22.1 16-31 26.3l28.1 22.1zM229.1 305.7c0-3.5-.5-7-1.5-10.6-7.2-23.2-17.9-44.6-32-64.4l-72.9-57.3c1.4 7.7 3.6 15.1 6.4 22.4 5.8 14.8 14 28.3 24.5 40.4 7 8.1 14.1 18.1 21.1 30.2 8.6 14.6 14.6 27.7 18.1 39.3h36.3zM192.9 362.3c0 2.5.8 4.8 2.3 6.8l18.1 27.9c2.5 3.5 6 5.3 10.6 5.3h58.9c4.5 0 8.1-1.8 10.6-5.3l18.1-27.9c1.5-2 2.3-4.3 2.3-6.8v-32.5H192.9v32.5zM478.5 400.1c-1.7 2.2-4.9 2.5-7 .8L15.8 43c-2.2-1.7-2.5-4.9-.8-7l16.5-21c1.7-2.2 4.9-2.5 7-.8L494.2 372c2.2 1.7 2.5 4.9.8 7l-16.5 21.1z"/></svg>
